<svg xmlns="http://www.w3.org/2000/svg" xmlns:xlink="http://www.w3.org/1999/xlink" width="1920" height="984" style="border: 1px solid black; overflow: hidden;"><defs/><g id="container"><g id="container_1" transform="matrix(0.4999,0.0000,0.0000,0.4999,89.0833,114.75)"><g id="container_2"/><g id="container_3"/><g id="container_4"><g id="I11"><path d="M 925.311203319502 195L 925.311203319502 195M 925.311203319502 210L 925.311203319502 180" style="fill:none;stroke:#ff0000;stroke-linecap:round;stroke-miterlimit:10;" id="shape"/></g><g id="I95"><path d="M 858.921161825726 382.50000000000006L 850.6224066390041 382.50000000000006M 858.921161825726 405L 858.921161825726 360" style="fill:none;stroke:#9400d3;stroke-linecap:round;stroke-miterlimit:10;" id="shape_1"/></g><g id="I12"><path d="M 1004.9999999999999 180L 925.311203319502 180" style="fill:none;stroke:#aaaaaa;stroke-width:0.3;stroke-linecap:round;stroke-miterlimit:10;stroke-dasharray:5,10;" id="shape_2"/><text id="text" transform="matrix(1.0000,0.0000,0.0000,1.0000,1005.0000,186.60)" fill="#000000" style="font-size:20px;font-family:Arial;">47 KX198086 1 Homo sapiens neanderthalensis isolate GoyetQ305-7 mitochondrion  complete genome</text><path d="M 925.311203319502 180L 925.311203319502 180" style="fill:none;stroke:#ff0000;stroke-linecap:round;stroke-miterlimit:10;" id="shape_3"/></g><g id="I83"><path d="M 875.51867219917 1125.0000000000007L 858.921161825726 1125.0000000000007M 875.51867219917 1140.0000000000007L 875.51867219917 1110.0000000000007" style="fill:none;stroke:#9400d3;stroke-linecap:round;stroke-miterlimit:10;" id="shape_4"/></g><g id="I51"><path d="M 875.51867219917 1008.7500000000007L 858.921161825726 1008.7500000000007M 875.51867219917 1042.5000000000007L 875.51867219917 975.0000000000007" style="fill:none;stroke:#9400d3;stroke-linecap:round;stroke-miterlimit:10;" id="shape_5"/></g><g id="I22"><path d="M 817.427385892116 438.4497070312501L 792.5311203319501 438.4497070312501M 817.427385892116 546.8994140625002L 817.427385892116 329.99999999999994" style="fill:none;stroke:#9400d3;stroke-linecap:round;stroke-miterlimit:10;" id="shape_6"/></g><g id="I79"><path d="M 883.8174273858921 1335.0000000000002L 875.51867219917 1335.0000000000002M 883.8174273858921 1350.0000000000002L 883.8174273858921 1320.0000000000002" style="fill:none;stroke:#9400d3;stroke-linecap:round;stroke-miterlimit:10;" id="shape_7"/></g><g id="I73"><path d="M 1004.9999999999999 1559.9999999999995L 966.804979253112 1559.9999999999995" style="fill:none;stroke:#aaaaaa;stroke-width:0.3;stroke-linecap:round;stroke-miterlimit:10;stroke-dasharray:5,10;" id="shape_8"/><text id="text_1" transform="matrix(1.0000,0.0000,0.0000,1.0000,1005.0000,1566.60)" fill="#000000" style="font-size:20px;font-family:Arial;">35 JN419195 1 Homo sapiens haplogroup T2b16 mitochondrion  complete genome</text><path d="M 966.804979253112 1559.9999999999995L 950.207468879668 1559.9999999999995" style="fill:none;stroke:#9400d3;stroke-linecap:round;stroke-miterlimit:10;" id="shape_9"/></g><g id="I5"><path d="M 1004.9999999999999 0L 850.6224066390041 0" style="fill:none;stroke:#aaaaaa;stroke-width:0.3;stroke-linecap:round;stroke-miterlimit:10;stroke-dasharray:5,10;" id="shape_10"/><text id="text_2" transform="matrix(1.0000,0.0000,0.0000,1.0000,1005.0000,6.60)" fill="#000000" style="font-size:20px;font-family:Arial;">53 KT780370 1 Homo sapiens ssp  Denisova isolate Denisova8 mitochondrion  complete genome</text><path d="M 850.6224066390041 0L 709.5435684647302 0" style="fill:none;stroke:#008000;stroke-linecap:round;stroke-miterlimit:10;" id="shape_11"/></g><g id="I46"><path d="M 925.311203319502 915.0000000000006L 850.6224066390041 915.0000000000006M 925.311203319502 930.0000000000006L 925.311203319502 900.0000000000006" style="fill:none;stroke:#9400d3;stroke-linecap:round;stroke-miterlimit:10;" id="shape_12"/></g><g id="I47"><path d="M 1004.9999999999999 900.0000000000006L 925.311203319502 900.0000000000006" style="fill:none;stroke:#aaaaaa;stroke-width:0.3;stroke-linecap:round;stroke-miterlimit:10;stroke-dasharray:5,10;" id="shape_13"/><text id="text_3" transform="matrix(1.0000,0.0000,0.0000,1.0000,1005.0000,906.60)" fill="#000000" style="font-size:20px;font-family:Arial;">44 KU521494 1 Homo sapiens isolate MND64 haplogroup Y2a1 mitochondrion  complete genome</text><path d="M 925.311203319502 900.0000000000006L 925.311203319502 900.0000000000006" style="fill:none;stroke:#9400d3;stroke-linecap:round;stroke-miterlimit:10;" id="shape_14"/></g><g id="I43"><path d="M 850.6224066390041 919.5703125000005L 850.6224066390041 919.5703125000005M 850.6224066390041 1014.1406250000006L 850.6224066390041 825.0000000000003" style="fill:none;stroke:#9400d3;stroke-linecap:round;stroke-miterlimit:10;" id="shape_15"/></g><g id="I96"><path d="M 883.8174273858921 405L 858.921161825726 405M 883.8174273858921 420.00000000000006L 883.8174273858921 390" style="fill:none;stroke:#9400d3;stroke-linecap:round;stroke-miterlimit:10;" id="shape_16"/></g><g id="I6"><path d="M 427.38589211618256 209.49371337890625L 0 209.49371337890625M 427.38589211618256 300.8624267578125L 427.38589211618256 118.125" style="fill:none;stroke:#000000;stroke-linecap:round;stroke-miterlimit:10;" id="shape_17"/></g><g id="I81"><path d="M 1004.9999999999999 1350.0000000000002L 991.7012448132779 1350.0000000000002" style="fill:none;stroke:#aaaaaa;stroke-width:0.3;stroke-linecap:round;stroke-miterlimit:10;stroke-dasharray:5,10;" id="shape_18"/><text id="text_4" transform="matrix(1.0000,0.0000,0.0000,1.0000,1005.0000,1356.60)" fill="#000000" style="font-size:20px;font-family:Arial;">36 KT698006 1 Homo sapiens isolate 52 Sb haplogroup U2e2a4 mitochondrion  complete genome</text><path d="M 991.7012448132779 1350.0000000000002L 883.8174273858921 1350.0000000000002" style="fill:none;stroke:#9400d3;stroke-linecap:round;stroke-miterlimit:10;" id="shape_19"/></g><g id="I20"><path d="M 1004.9999999999999 270L 908.7136929460579 270" style="fill:none;stroke:#aaaaaa;stroke-width:0.3;stroke-linecap:round;stroke-miterlimit:10;stroke-dasharray:5,10;" id="shape_20"/><text id="text_5" transform="matrix(1.0000,0.0000,0.0000,1.0000,1005.0000,276.60)" fill="#000000" style="font-size:20px;font-family:Arial;">23 KR135883 1 Homo sapiens isolate MOZ326 haplogroup L2a1a mitochondrion  complete genome</text><path d="M 908.7136929460579 270L 825.726141078838 270" style="fill:none;stroke:#9400d3;stroke-linecap:round;stroke-miterlimit:10;" id="shape_21"/></g><g id="I50"><path d="M 858.921161825726 1135.7812500000007L 850.6224066390041 1135.7812500000007M 858.921161825726 1262.8125000000007L 858.921161825726 1008.7500000000007" style="fill:none;stroke:#9400d3;stroke-linecap:round;stroke-miterlimit:10;" id="shape_22"/></g><g id="I26"><path d="M 1004.9999999999999 540.0000000000001L 900.414937759336 540.0000000000001" style="fill:none;stroke:#aaaaaa;stroke-width:0.3;stroke-linecap:round;stroke-miterlimit:10;stroke-dasharray:5,10;" id="shape_23"/><text id="text_6" transform="matrix(1.0000,0.0000,0.0000,1.0000,1005.0000,546.60)" fill="#000000" style="font-size:20px;font-family:Arial;">25 KT819263 1 Homo sapiens isolate Fig18 haplogroup L3e5a1 mitochondrion  complete genome</text><path d="M 900.414937759336 540.0000000000001L 834.0248962655601 540.0000000000001" style="fill:none;stroke:#9400d3;stroke-linecap:round;stroke-miterlimit:10;" id="shape_24"/></g><g id="I33"><path d="M 933.609958506224 645.0000000000002L 867.219917012448 645.0000000000002M 933.609958506224 660.0000000000003L 933.609958506224 630.0000000000002" style="fill:none;stroke:#9400d3;stroke-linecap:round;stroke-miterlimit:10;" id="shape_25"/></g><g id="I69"><path d="M 933.609958506224 1522.4999999999995L 883.8174273858921 1522.4999999999995M 933.609958506224 1544.9999999999995L 933.609958506224 1499.9999999999998" style="fill:none;stroke:#9400d3;stroke-linecap:round;stroke-miterlimit:10;" id="shape_26"/></g><g id="I82"><path d="M 858.921161825726 1158.7500000000007L 858.921161825726 1158.7500000000007M 858.921161825726 1192.5000000000007L 858.921161825726 1125.0000000000007" style="fill:none;stroke:#9400d3;stroke-linecap:round;stroke-miterlimit:10;" id="shape_27"/></g><g id="I44"><path d="M 850.6224066390041 1014.1406250000006L 850.6224066390041 1014.1406250000006M 850.6224066390041 1135.7812500000007L 850.6224066390041 892.5000000000006" style="fill:none;stroke:#9400d3;stroke-linecap:round;stroke-miterlimit:10;" id="shape_28"/></g><g id="I56"><path d="M 1004.9999999999999 1020.0000000000007L 917.01244813278 1020.0000000000007" style="fill:none;stroke:#aaaaaa;stroke-width:0.3;stroke-linecap:round;stroke-miterlimit:10;stroke-dasharray:5,10;" id="shape_29"/><text id="text_7" transform="matrix(1.0000,0.0000,0.0000,1.0000,1005.0000,1026.60)" fill="#000000" style="font-size:20px;font-family:Arial;">14 KP340170 1 Homo sapiens isolate azerE43 haplogroup HV4a1 mitochondrion  complete genome</text><path d="M 917.01244813278 1020.0000000000007L 875.51867219917 1020.0000000000007" style="fill:none;stroke:#9400d3;stroke-linecap:round;stroke-miterlimit:10;" id="shape_30"/></g><g id="I76"><path d="M 917.01244813278 1275.0000000000005L 875.51867219917 1275.0000000000005M 917.01244813278 1290.0000000000005L 917.01244813278 1260.0000000000005" style="fill:none;stroke:#9400d3;stroke-linecap:round;stroke-miterlimit:10;" id="shape_31"/></g><g id="I80"><path d="M 1004.9999999999999 1320.0000000000002L 950.207468879668 1320.0000000000002" style="fill:none;stroke:#aaaaaa;stroke-width:0.3;stroke-linecap:round;stroke-miterlimit:10;stroke-dasharray:5,10;" id="shape_32"/><text id="text_8" transform="matrix(1.0000,0.0000,0.0000,1.0000,1005.0000,1326.60)" fill="#000000" style="font-size:20px;font-family:Arial;">37 HM804485 1 Homo sapiens haplogroup U6a7a1 mitochondrion  complete genome</text><path d="M 950.207468879668 1320.0000000000002L 883.8174273858921 1320.0000000000002" style="fill:none;stroke:#9400d3;stroke-linecap:round;stroke-miterlimit:10;" id="shape_33"/></g><g id="I86"><path d="M 858.921161825726 1192.5000000000007L 858.921161825726 1192.5000000000007M 858.921161825726 1215.0000000000007L 858.921161825726 1170.000000000001" style="fill:none;stroke:#9400d3;stroke-linecap:round;stroke-miterlimit:10;" id="shape_34"/></g><g id="I28"><path d="M 858.921161825726 665.6250000000003L 850.6224066390041 665.6250000000003M 858.921161825726 716.2500000000003L 858.921161825726 615.0000000000002" style="fill:none;stroke:#9400d3;stroke-linecap:round;stroke-miterlimit:10;" id="shape_35"/></g><g id="I99"><path d="M 1004.9999999999999 360L 925.311203319502 360" style="fill:none;stroke:#aaaaaa;stroke-width:0.3;stroke-linecap:round;stroke-miterlimit:10;stroke-dasharray:5,10;" id="shape_36"/><text id="text_9" transform="matrix(1.0000,0.0000,0.0000,1.0000,1005.0000,366.60)" fill="#000000" style="font-size:20px;font-family:Arial;">28 KY686209 1 Homo sapiens haplogroup M60 mitochondrion  complete genome</text><path d="M 925.311203319502 360L 858.921161825726 360" style="fill:none;stroke:#9400d3;stroke-linecap:round;stroke-miterlimit:10;" id="shape_37"/></g><g id="I102"><path d="M 908.713692946058 495.0000000000001L 858.921161825726 495.0000000000001M 908.713692946058 510.0000000000001L 908.713692946058 480.0000000000001" style="fill:none;stroke:#9400d3;stroke-linecap:round;stroke-miterlimit:10;" id="shape_38"/></g><g id="I68"><path d="M 1004.9999999999999 1469.9999999999998L 975.1037344398339 1469.9999999999998" style="fill:none;stroke:#aaaaaa;stroke-width:0.3;stroke-linecap:round;stroke-miterlimit:10;stroke-dasharray:5,10;" id="shape_39"/><text id="text_10" transform="matrix(1.0000,0.0000,0.0000,1.0000,1005.0000,1476.60)" fill="#000000" style="font-size:20px;font-family:Arial;">19 KX440275 1 Homo sapiens isolate JT89 haplogroup J2b1 mitochondrion  complete genome</text><path d="M 975.1037344398339 1469.9999999999998L 933.609958506224 1469.9999999999998" style="fill:none;stroke:#9400d3;stroke-linecap:round;stroke-miterlimit:10;" id="shape_40"/></g><g id="I54"><path d="M 1004.9999999999999 1050.0000000000007L 917.0124481327799 1050.0000000000007" style="fill:none;stroke:#aaaaaa;stroke-width:0.3;stroke-linecap:round;stroke-miterlimit:10;stroke-dasharray:5,10;" id="shape_41"/><text id="text_11" transform="matrix(1.0000,0.0000,0.0000,1.0000,1005.0000,1056.60)" fill="#000000" style="font-size:20px;font-family:Arial;">12 KY934476 1 Homo sapiens haplogroup H1h1 mitochondrion  complete genome</text><path d="M 917.0124481327799 1050.0000000000007L 883.8174273858921 1050.0000000000007" style="fill:none;stroke:#9400d3;stroke-linecap:round;stroke-miterlimit:10;" id="shape_42"/></g><g id="I4"><path d="M 1004.9999999999999 60L 999.9999999999999 60" style="fill:none;stroke:#aaaaaa;stroke-width:0.3;stroke-linecap:round;stroke-miterlimit:10;stroke-dasharray:5,10;" id="shape_43"/><text id="text_12" transform="matrix(1.0000,0.0000,0.0000,1.0000,1005.0000,66.60)" fill="#000000" style="font-size:20px;font-family:Arial;">52 FR695060 1 Homo sp  Altai complete mitochondrial genome  isolate Denisova molar</text><path d="M 999.9999999999999 60L 991.701244813278 60" style="fill:none;stroke:#008000;stroke-linecap:round;stroke-miterlimit:10;" id="shape_44"/></g><g id="I88"><path d="M 1004.9999999999999 1200.0000000000007L 950.207468879668 1200.0000000000007" style="fill:none;stroke:#aaaaaa;stroke-width:0.3;stroke-linecap:round;stroke-miterlimit:10;stroke-dasharray:5,10;" id="shape_45"/><text id="text_13" transform="matrix(1.0000,0.0000,0.0000,1.0000,1005.0000,1206.60)" fill="#000000" style="font-size:20px;font-family:Arial;">10 HQ259121 1 Homo sapiens haplogroup F1a3 mitochondrion  complete genome</text><path d="M 950.207468879668 1200.0000000000007L 875.51867219917 1200.0000000000007" style="fill:none;stroke:#9400d3;stroke-linecap:round;stroke-miterlimit:10;" id="shape_46"/></g><g id="I92"><path d="M 1004.9999999999999 810.0000000000005L 983.4024896265558 810.0000000000005" style="fill:none;stroke:#aaaaaa;stroke-width:0.3;stroke-linecap:round;stroke-miterlimit:10;stroke-dasharray:5,10;" id="shape_47"/><text id="text_14" transform="matrix(1.0000,0.0000,0.0000,1.0000,1005.0000,816.60)" fill="#000000" style="font-size:20px;font-family:Arial;">2 JQ247408 1 Homo sapiens haplogroup A2f1a mitochondrion  complete genome</text><path d="M 983.4024896265558 810.0000000000005L 900.414937759336 810.0000000000005" style="fill:none;stroke:#9400d3;stroke-linecap:round;stroke-miterlimit:10;" id="shape_48"/></g><g id="I72"><path d="M 1004.9999999999999 1529.9999999999995L 975.1037344398339 1529.9999999999995" style="fill:none;stroke:#aaaaaa;stroke-width:0.3;stroke-linecap:round;stroke-miterlimit:10;stroke-dasharray:5,10;" id="shape_49"/><text id="text_15" transform="matrix(1.0000,0.0000,0.0000,1.0000,1005.0000,1536.60)" fill="#000000" style="font-size:20px;font-family:Arial;">34 KX440315 1 Homo sapiens isolate JT129 haplogroup T2a1a mitochondrion  complete genome</text><path d="M 975.1037344398339 1529.9999999999995L 950.207468879668 1529.9999999999995" style="fill:none;stroke:#9400d3;stroke-linecap:round;stroke-miterlimit:10;" id="shape_50"/></g><g id="I27"><path d="M 850.6224066390041 792.5976562500003L 834.0248962655601 792.5976562500003M 850.6224066390041 919.5703125000005L 850.6224066390041 665.6250000000003" style="fill:none;stroke:#9400d3;stroke-linecap:round;stroke-miterlimit:10;" id="shape_51"/></g><g id="I67"><path d="M 1004.9999999999999 1440L 999.9999999999999 1440" style="fill:none;stroke:#aaaaaa;stroke-width:0.3;stroke-linecap:round;stroke-miterlimit:10;stroke-dasharray:5,10;" id="shape_52"/><text id="text_16" transform="matrix(1.0000,0.0000,0.0000,1.0000,1005.0000,1446.60)" fill="#000000" style="font-size:20px;font-family:Arial;">18 KX440262 1 Homo sapiens isolate JT76 haplogroup J2a2d1 mitochondrion  complete genome</text><path d="M 999.9999999999999 1440L 933.609958506224 1440" style="fill:none;stroke:#9400d3;stroke-linecap:round;stroke-miterlimit:10;" id="shape_53"/></g><g id="I101"><path d="M 1004.9999999999999 450.00000000000006L 950.207468879668 450.00000000000006" style="fill:none;stroke:#aaaaaa;stroke-width:0.3;stroke-linecap:round;stroke-miterlimit:10;stroke-dasharray:5,10;" id="shape_54"/><text id="text_17" transform="matrix(1.0000,0.0000,0.0000,1.0000,1005.0000,456.60)" fill="#000000" style="font-size:20px;font-family:Arial;">27 KM986625 1 Homo sapiens isolate Y539 haplogroup M23 mitochondrion  complete genome</text><path d="M 950.207468879668 450.00000000000006L 858.921161825726 450.00000000000006" style="fill:none;stroke:#9400d3;stroke-linecap:round;stroke-miterlimit:10;" id="shape_55"/></g><g id="I103"><path d="M 1004.9999999999999 480.0000000000001L 958.5062240663899 480.0000000000001" style="fill:none;stroke:#aaaaaa;stroke-width:0.3;stroke-linecap:round;stroke-miterlimit:10;stroke-dasharray:5,10;" id="shape_56"/><text id="text_18" transform="matrix(1.0000,0.0000,0.0000,1.0000,1005.0000,486.60)" fill="#000000" style="font-size:20px;font-family:Arial;">6 KP017255 1 Homo sapiens isolate CH2D01 20 haplogroup C1d3 mitochondrion  complete genome</text><path d="M 958.5062240663899 480.0000000000001L 908.713692946058 480.0000000000001" style="fill:none;stroke:#9400d3;stroke-linecap:round;stroke-miterlimit:10;" id="shape_57"/></g><g id="I74"><path d="M 1004.9999999999999 1380.0000000000002L 958.5062240663899 1380.0000000000002" style="fill:none;stroke:#aaaaaa;stroke-width:0.3;stroke-linecap:round;stroke-miterlimit:10;stroke-dasharray:5,10;" id="shape_58"/><text id="text_19" transform="matrix(1.0000,0.0000,0.0000,1.0000,1005.0000,1386.60)" fill="#000000" style="font-size:20px;font-family:Arial;">31 KY303770 1 Homo sapiens haplogroup R2c mitochondrion  complete genome</text><path d="M 958.5062240663899 1380.0000000000002L 867.219917012448 1380.0000000000002" style="fill:none;stroke:#9400d3;stroke-linecap:round;stroke-miterlimit:10;" id="shape_59"/></g><g id="I91"><path d="M 900.414937759336 825.0000000000003L 850.6224066390041 825.0000000000003M 900.414937759336 840.0000000000005L 900.414937759336 810.0000000000005" style="fill:none;stroke:#9400d3;stroke-linecap:round;stroke-miterlimit:10;" id="shape_60"/></g><g id="I15"><path d="M 1004.9999999999999 120L 908.713692946058 120" style="fill:none;stroke:#aaaaaa;stroke-width:0.3;stroke-linecap:round;stroke-miterlimit:10;stroke-dasharray:5,10;" id="shape_61"/><text id="text_20" transform="matrix(1.0000,0.0000,0.0000,1.0000,1005.0000,126.60)" fill="#000000" style="font-size:20px;font-family:Arial;">50 KX198088 1 Homo sapiens neanderthalensis isolate GoyetQ57-2 mitochondrion  complete genome</text><path d="M 908.713692946058 120L 883.8174273858921 120" style="fill:none;stroke:#ff0000;stroke-linecap:round;stroke-miterlimit:10;" id="shape_62"/></g><g id="I61"><path d="M 858.921161825726 1366.8750000000002L 858.921161825726 1366.8750000000002M 858.921161825726 1428.75L 858.921161825726 1305.0000000000005" style="fill:none;stroke:#9400d3;stroke-linecap:round;stroke-miterlimit:10;" id="shape_63"/></g><g id="I62"><path d="M 867.219917012448 1428.75L 858.921161825726 1428.75M 867.219917012448 1477.4999999999998L 867.219917012448 1380.0000000000002" style="fill:none;stroke:#9400d3;stroke-linecap:round;stroke-miterlimit:10;" id="shape_64"/></g><g id="I21"><path d="M 1004.9999999999999 300L 991.7012448132779 300" style="fill:none;stroke:#aaaaaa;stroke-width:0.3;stroke-linecap:round;stroke-miterlimit:10;stroke-dasharray:5,10;" id="shape_65"/><text id="text_21" transform="matrix(1.0000,0.0000,0.0000,1.0000,1005.0000,306.60)" fill="#000000" style="font-size:20px;font-family:Arial;">24 KR135861 1 Homo sapiens isolate SUD103 haplogroup L2e1 mitochondrion  complete genome</text><path d="M 991.7012448132779 300L 825.726141078838 300" style="fill:none;stroke:#9400d3;stroke-linecap:round;stroke-miterlimit:10;" id="shape_66"/></g><g id="I70"><path d="M 1004.9999999999999 1499.9999999999998L 966.8049792531118 1499.9999999999998" style="fill:none;stroke:#aaaaaa;stroke-width:0.3;stroke-linecap:round;stroke-miterlimit:10;stroke-dasharray:5,10;" id="shape_67"/><text id="text_22" transform="matrix(1.0000,0.0000,0.0000,1.0000,1005.0000,1506.60)" fill="#000000" style="font-size:20px;font-family:Arial;">33 JF837819 1 Homo sapiens haplogroup T1a1 mitochondrion  complete genome</text><path d="M 966.8049792531118 1499.9999999999998L 933.609958506224 1499.9999999999998" style="fill:none;stroke:#9400d3;stroke-linecap:round;stroke-miterlimit:10;" id="shape_68"/></g><g id="I25"><path d="M 834.0248962655601 666.2988281250003L 834.0248962655601 666.2988281250003M 834.0248962655601 792.5976562500003L 834.0248962655601 540.0000000000001" style="fill:none;stroke:#9400d3;stroke-linecap:round;stroke-miterlimit:10;" id="shape_69"/></g><g id="I100"><path d="M 858.921161825726 472.5000000000001L 850.6224066390041 472.5000000000001M 858.921161825726 495.0000000000001L 858.921161825726 450.00000000000006" style="fill:none;stroke:#9400d3;stroke-linecap:round;stroke-miterlimit:10;" id="shape_70"/></g><g id="I23"><path d="M 1004.9999999999999 329.99999999999994L 908.713692946058 329.99999999999994" style="fill:none;stroke:#aaaaaa;stroke-width:0.3;stroke-linecap:round;stroke-miterlimit:10;stroke-dasharray:5,10;" id="shape_71"/><text id="text_23" transform="matrix(1.0000,0.0000,0.0000,1.0000,1005.0000,336.60)" fill="#000000" style="font-size:20px;font-family:Arial;">26 KM986608 1 Homo sapiens isolate Y453 haplogroup L4b2a1 mitochondrion  complete genome</text><path d="M 908.713692946058 329.99999999999994L 817.427385892116 329.99999999999994" style="fill:none;stroke:#9400d3;stroke-linecap:round;stroke-miterlimit:10;" id="shape_72"/></g><g id="I89"><path d="M 1004.9999999999999 1230.0000000000007L 950.207468879668 1230.0000000000007" style="fill:none;stroke:#aaaaaa;stroke-width:0.3;stroke-linecap:round;stroke-miterlimit:10;stroke-dasharray:5,10;" id="shape_73"/><text id="text_24" transform="matrix(1.0000,0.0000,0.0000,1.0000,1005.0000,1236.60)" fill="#000000" style="font-size:20px;font-family:Arial;">11 KU521454 1 Homo sapiens isolate PAI17 haplogroup F3b1 mitochondrion  complete genome</text><path d="M 950.207468879668 1230.0000000000007L 875.51867219917 1230.0000000000007" style="fill:none;stroke:#9400d3;stroke-linecap:round;stroke-miterlimit:10;" id="shape_74"/></g><g id="I71"><path d="M 950.207468879668 1544.9999999999995L 933.609958506224 1544.9999999999995M 950.207468879668 1559.9999999999995L 950.207468879668 1529.9999999999995" style="fill:none;stroke:#9400d3;stroke-linecap:round;stroke-miterlimit:10;" id="shape_75"/></g><g id="I1"><path d="M 709.5435684647302 22.5L 0 22.5M 709.5435684647302 45L 709.5435684647302 0" style="fill:none;stroke:#008000;stroke-linecap:round;stroke-miterlimit:10;" id="shape_76"/></g><g id="I29"><path d="M 867.219917012448 615.0000000000002L 858.921161825726 615.0000000000002M 867.219917012448 645.0000000000002L 867.219917012448 585.0000000000001" style="fill:none;stroke:#9400d3;stroke-linecap:round;stroke-miterlimit:10;" id="shape_77"/></g><g id="I37"><path d="M 925.3112033195018 742.5000000000005L 892.116182572614 742.5000000000005M 925.3112033195018 765.0000000000003L 925.3112033195018 720.0000000000003" style="fill:none;stroke:#9400d3;stroke-linecap:round;stroke-miterlimit:10;" id="shape_78"/></g><g id="I40"><path d="M 1004.9999999999999 780.0000000000005L 958.5062240663898 780.0000000000005" style="fill:none;stroke:#aaaaaa;stroke-width:0.3;stroke-linecap:round;stroke-miterlimit:10;stroke-dasharray:5,10;" id="shape_79"/><text id="text_25" transform="matrix(1.0000,0.0000,0.0000,1.0000,1005.0000,786.60)" fill="#000000" style="font-size:20px;font-family:Arial;">17 KY369152 2 Homo sapiens haplogroup I4a mitochondrion  complete genome</text><path d="M 958.5062240663898 780.0000000000005L 925.3112033195018 780.0000000000005" style="fill:none;stroke:#9400d3;stroke-linecap:round;stroke-miterlimit:10;" id="shape_80"/></g><g id="I57"><path d="M 900.414937759336 975.0000000000007L 875.51867219917 975.0000000000007M 900.414937759336 990.0000000000006L 900.414937759336 960.0000000000006" style="fill:none;stroke:#9400d3;stroke-linecap:round;stroke-miterlimit:10;" id="shape_81"/></g><g id="I31"><path d="M 1004.9999999999999 570.0000000000002L 925.3112033195018 570.0000000000002" style="fill:none;stroke:#aaaaaa;stroke-width:0.3;stroke-linecap:round;stroke-miterlimit:10;stroke-dasharray:5,10;" id="shape_82"/><text id="text_26" transform="matrix(1.0000,0.0000,0.0000,1.0000,1005.0000,576.60)" fill="#000000" style="font-size:20px;font-family:Arial;">42 HM453712 1 Homo sapiens haplogroup X2B mitochondrion  complete genome</text><path d="M 925.3112033195018 570.0000000000002L 892.116182572614 570.0000000000002" style="fill:none;stroke:#9400d3;stroke-linecap:round;stroke-miterlimit:10;" id="shape_83"/></g><g id="I97"><path d="M 1004.9999999999999 390L 950.207468879668 390" style="fill:none;stroke:#aaaaaa;stroke-width:0.3;stroke-linecap:round;stroke-miterlimit:10;stroke-dasharray:5,10;" id="shape_84"/><text id="text_27" transform="matrix(1.0000,0.0000,0.0000,1.0000,1005.0000,396.60)" fill="#000000" style="font-size:20px;font-family:Arial;">8 KP172432 1 Homo sapiens isolate GranChaco561 haplogroup D1 mitochondrion  complete genome</text><path d="M 950.207468879668 390L 883.8174273858921 390" style="fill:none;stroke:#9400d3;stroke-linecap:round;stroke-miterlimit:10;" id="shape_85"/></g><g id="I36"><path d="M 892.116182572614 716.2500000000003L 858.921161825726 716.2500000000003M 892.116182572614 742.5000000000005L 892.116182572614 690.0000000000003" style="fill:none;stroke:#9400d3;stroke-linecap:round;stroke-miterlimit:10;" id="shape_86"/></g><g id="I58"><path d="M 1004.9999999999999 960.0000000000006L 933.609958506224 960.0000000000006" style="fill:none;stroke:#aaaaaa;stroke-width:0.3;stroke-linecap:round;stroke-miterlimit:10;stroke-dasharray:5,10;" id="shape_87"/><text id="text_28" transform="matrix(1.0000,0.0000,0.0000,1.0000,1005.0000,966.60)" fill="#000000" style="font-size:20px;font-family:Arial;">38 KY496869 1 Homo sapiens isolate MP 13 haplogroup V mitochondrion  complete genome</text><path d="M 933.609958506224 960.0000000000006L 900.414937759336 960.0000000000006" style="fill:none;stroke:#9400d3;stroke-linecap:round;stroke-miterlimit:10;" id="shape_88"/></g><g id="I17"><path d="M 1004.9999999999999 240L 941.9087136929459 240" style="fill:none;stroke:#aaaaaa;stroke-width:0.3;stroke-linecap:round;stroke-miterlimit:10;stroke-dasharray:5,10;" id="shape_89"/><text id="text_29" transform="matrix(1.0000,0.0000,0.0000,1.0000,1005.0000,246.60)" fill="#000000" style="font-size:20px;font-family:Arial;">22 FJ713601 1 Homo sapiens haplogroup L1c1d mitochondrion  complete genome</text><path d="M 941.9087136929459 240L 742.7385892116182 240" style="fill:none;stroke:#9400d3;stroke-linecap:round;stroke-miterlimit:10;" id="shape_90"/></g><g id="I98"><path d="M 1004.9999999999999 420.00000000000006L 933.609958506224 420.00000000000006" style="fill:none;stroke:#aaaaaa;stroke-width:0.3;stroke-linecap:round;stroke-miterlimit:10;stroke-dasharray:5,10;" id="shape_91"/><text id="text_30" transform="matrix(1.0000,0.0000,0.0000,1.0000,1005.0000,426.60)" fill="#000000" style="font-size:20px;font-family:Arial;">9 JN084079 1 Homo sapiens haplogroup D4e1a1 mitochondrion  complete genome</text><path d="M 933.609958506224 420.00000000000006L 883.8174273858921 420.00000000000006" style="fill:none;stroke:#9400d3;stroke-linecap:round;stroke-miterlimit:10;" id="shape_92"/></g><g id="I53"><path d="M 883.8174273858921 1065.0000000000007L 875.51867219917 1065.0000000000007M 883.8174273858921 1080.0000000000007L 883.8174273858921 1050.0000000000007" style="fill:none;stroke:#9400d3;stroke-linecap:round;stroke-miterlimit:10;" id="shape_93"/></g><g id="I90"><path d="M 1004.9999999999999 1170.000000000001L 950.207468879668 1170.000000000001" style="fill:none;stroke:#aaaaaa;stroke-width:0.3;stroke-linecap:round;stroke-miterlimit:10;stroke-dasharray:5,10;" id="shape_94"/><text id="text_31" transform="matrix(1.0000,0.0000,0.0000,1.0000,1005.0000,1176.60)" fill="#000000" style="font-size:20px;font-family:Arial;">32 KY686210 1 Homo sapiens haplogroup R6 mitochondrion  complete genome</text><path d="M 950.207468879668 1170.000000000001L 858.921161825726 1170.000000000001" style="fill:none;stroke:#9400d3;stroke-linecap:round;stroke-miterlimit:10;" id="shape_95"/></g><g id="I55"><path d="M 1004.9999999999999 1080.0000000000007L 900.414937759336 1080.0000000000007" style="fill:none;stroke:#aaaaaa;stroke-width:0.3;stroke-linecap:round;stroke-miterlimit:10;stroke-dasharray:5,10;" id="shape_96"/><text id="text_32" transform="matrix(1.0000,0.0000,0.0000,1.0000,1005.0000,1086.60)" fill="#000000" style="font-size:20px;font-family:Arial;">13 KY077676 1 Homo sapiens haplogroup H7j1 mitochondrion  complete genome</text><path d="M 900.414937759336 1080.0000000000007L 883.8174273858921 1080.0000000000007" style="fill:none;stroke:#9400d3;stroke-linecap:round;stroke-miterlimit:10;" id="shape_97"/></g><g id="I16"><path d="M 742.7385892116182 300.8624267578125L 427.38589211618256 300.8624267578125M 742.7385892116182 361.724853515625L 742.7385892116182 240" style="fill:none;stroke:#9400d3;stroke-linecap:round;stroke-miterlimit:10;" id="shape_98"/></g><g id="I49"><path d="M 1004.9999999999999 870.0000000000005L 925.311203319502 870.0000000000005" style="fill:none;stroke:#aaaaaa;stroke-width:0.3;stroke-linecap:round;stroke-miterlimit:10;stroke-dasharray:5,10;" id="shape_99"/><text id="text_33" transform="matrix(1.0000,0.0000,0.0000,1.0000,1005.0000,876.60)" fill="#000000" style="font-size:20px;font-family:Arial;">30 JN084084 1 Homo sapiens haplogroup N9a10 mitochondrion  complete genome</text><path d="M 925.311203319502 870.0000000000005L 850.6224066390041 870.0000000000005" style="fill:none;stroke:#9400d3;stroke-linecap:round;stroke-miterlimit:10;" id="shape_100"/></g><g id="I0"><path d="M 0 115.99685668945312L 0 115.99685668945312M 0 209.49371337890625L 0 22.5" style="fill:none;stroke:#000000;stroke-linecap:round;stroke-miterlimit:10;" id="shape_101"/></g><g id="I64"><path d="M 917.0124481327799 1432.5L 883.8174273858921 1432.5M 917.0124481327799 1454.9999999999998L 917.0124481327799 1410" style="fill:none;stroke:#9400d3;stroke-linecap:round;stroke-miterlimit:10;" id="shape_102"/></g><g id="I63"><path d="M 883.8174273858921 1477.4999999999998L 867.219917012448 1477.4999999999998M 883.8174273858921 1522.4999999999995L 883.8174273858921 1432.5" style="fill:none;stroke:#9400d3;stroke-linecap:round;stroke-miterlimit:10;" id="shape_103"/></g><g id="I84"><path d="M 1004.9999999999999 1110.0000000000007L 958.50622406639 1110.0000000000007" style="fill:none;stroke:#aaaaaa;stroke-width:0.3;stroke-linecap:round;stroke-miterlimit:10;stroke-dasharray:5,10;" id="shape_104"/><text id="text_34" transform="matrix(1.0000,0.0000,0.0000,1.0000,1005.0000,1116.60)" fill="#000000" style="font-size:20px;font-family:Arial;">4 KP172434 1 Homo sapiens isolate GranChaco16 haplogroup B2 mitochondrion  complete genome</text><path d="M 958.50622406639 1110.0000000000007L 875.51867219917 1110.0000000000007" style="fill:none;stroke:#9400d3;stroke-linecap:round;stroke-miterlimit:10;" id="shape_105"/></g><g id="I32"><path d="M 1004.9999999999999 600.0000000000002L 941.9087136929459 600.0000000000002" style="fill:none;stroke:#aaaaaa;stroke-width:0.3;stroke-linecap:round;stroke-miterlimit:10;stroke-dasharray:5,10;" id="shape_106"/><text id="text_35" transform="matrix(1.0000,0.0000,0.0000,1.0000,1005.0000,606.60)" fill="#000000" style="font-size:20px;font-family:Arial;">43 HM448049 1 Homo sapiens haplogroup X2d mitochondrion  complete genome</text><path d="M 941.9087136929459 600.0000000000002L 892.116182572614 600.0000000000002" style="fill:none;stroke:#9400d3;stroke-linecap:round;stroke-miterlimit:10;" id="shape_107"/></g><g id="I8"><path d="M 1004.9999999999999 90L 892.1161825726141 90" style="fill:none;stroke:#aaaaaa;stroke-width:0.3;stroke-linecap:round;stroke-miterlimit:10;stroke-dasharray:5,10;" id="shape_108"/><text id="text_36" transform="matrix(1.0000,0.0000,0.0000,1.0000,1005.0000,96.60)" fill="#000000" style="font-size:20px;font-family:Arial;">46 KX198087 1 Homo sapiens neanderthalensis isolate GoyetQ305-4 mitochondrion  complete genome</text><path d="M 892.1161825726141 90L 875.51867219917 90" style="fill:none;stroke:#ff0000;stroke-linecap:round;stroke-miterlimit:10;" id="shape_109"/></g><g id="I39"><path d="M 1004.9999999999999 750.0000000000003L 991.7012448132779 750.0000000000003" style="fill:none;stroke:#aaaaaa;stroke-width:0.3;stroke-linecap:round;stroke-miterlimit:10;stroke-dasharray:5,10;" id="shape_110"/><text id="text_37" transform="matrix(1.0000,0.0000,0.0000,1.0000,1005.0000,756.60)" fill="#000000" style="font-size:20px;font-family:Arial;">15 KY348642 1 Homo sapiens haplogroup I1a1a3 mitochondrion  complete genome</text><path d="M 991.7012448132779 750.0000000000003L 925.3112033195018 750.0000000000003" style="fill:none;stroke:#9400d3;stroke-linecap:round;stroke-miterlimit:10;" id="shape_111"/></g><g id="I2"><path d="M 991.701244813278 45L 709.5435684647302 45M 991.701244813278 60L 991.701244813278 30" style="fill:none;stroke:#008000;stroke-linecap:round;stroke-miterlimit:10;" id="shape_112"/></g><g id="I42"><path d="M 1004.9999999999999 690.0000000000003L 966.8049792531118 690.0000000000003" style="fill:none;stroke:#aaaaaa;stroke-width:0.3;stroke-linecap:round;stroke-miterlimit:10;stroke-dasharray:5,10;" id="shape_113"/><text id="text_38" transform="matrix(1.0000,0.0000,0.0000,1.0000,1005.0000,696.60)" fill="#000000" style="font-size:20px;font-family:Arial;">29 KM986616 1 Homo sapiens isolate Y488 haplogroup N1a1a3 mitochondrion  complete genome</text><path d="M 966.8049792531118 690.0000000000003L 892.116182572614 690.0000000000003" style="fill:none;stroke:#9400d3;stroke-linecap:round;stroke-miterlimit:10;" id="shape_114"/></g><g id="I35"><path d="M 1004.9999999999999 660.0000000000003L 966.8049792531118 660.0000000000003" style="fill:none;stroke:#aaaaaa;stroke-width:0.3;stroke-linecap:round;stroke-miterlimit:10;stroke-dasharray:5,10;" id="shape_115"/><text id="text_39" transform="matrix(1.0000,0.0000,0.0000,1.0000,1005.0000,666.60)" fill="#000000" style="font-size:20px;font-family:Arial;">41 KY934478 1 Homo sapiens haplogroup W6 mitochondrion  complete genome</text><path d="M 966.8049792531118 660.0000000000003L 933.609958506224 660.0000000000003" style="fill:none;stroke:#9400d3;stroke-linecap:round;stroke-miterlimit:10;" id="shape_116"/></g><g id="I18"><path d="M 792.5311203319501 361.724853515625L 742.7385892116182 361.724853515625M 792.5311203319501 438.4497070312501L 792.5311203319501 284.99999999999994" style="fill:none;stroke:#9400d3;stroke-linecap:round;stroke-miterlimit:10;" id="shape_117"/></g><g id="I59"><path d="M 1004.9999999999999 990.0000000000006L 925.311203319502 990.0000000000006" style="fill:none;stroke:#aaaaaa;stroke-width:0.3;stroke-linecap:round;stroke-miterlimit:10;stroke-dasharray:5,10;" id="shape_118"/><text id="text_40" transform="matrix(1.0000,0.0000,0.0000,1.0000,1005.0000,996.60)" fill="#000000" style="font-size:20px;font-family:Arial;">39 JF343123 1 Homo sapiens haplogroup V3b1 mitochondrion  complete genome</text><path d="M 925.311203319502 990.0000000000006L 900.414937759336 990.0000000000006" style="fill:none;stroke:#9400d3;stroke-linecap:round;stroke-miterlimit:10;" id="shape_119"/></g><g id="I104"><path d="M 1004.9999999999999 510.0000000000001L 958.5062240663899 510.0000000000001" style="fill:none;stroke:#aaaaaa;stroke-width:0.3;stroke-linecap:round;stroke-miterlimit:10;stroke-dasharray:5,10;" id="shape_120"/><text id="text_41" transform="matrix(1.0000,0.0000,0.0000,1.0000,1005.0000,516.60)" fill="#000000" style="font-size:20px;font-family:Arial;">7 JF811749 1 Homo sapiens haplogroup C4a1 mitochondrion  complete genome</text><path d="M 958.5062240663899 510.0000000000001L 908.713692946058 510.0000000000001" style="fill:none;stroke:#9400d3;stroke-linecap:round;stroke-miterlimit:10;" id="shape_121"/></g><g id="I75"><path d="M 875.51867219917 1305.0000000000005L 858.921161825726 1305.0000000000005M 875.51867219917 1335.0000000000002L 875.51867219917 1275.0000000000005" style="fill:none;stroke:#9400d3;stroke-linecap:round;stroke-miterlimit:10;" id="shape_122"/></g><g id="I10"><path d="M 925.311203319502 172.50000000000003L 883.8174273858921 172.50000000000003M 925.311203319502 195L 925.311203319502 150" style="fill:none;stroke:#ff0000;stroke-linecap:round;stroke-miterlimit:10;" id="shape_123"/></g><g id="I30"><path d="M 892.116182572614 585.0000000000001L 867.219917012448 585.0000000000001M 892.116182572614 600.0000000000002L 892.116182572614 570.0000000000002" style="fill:none;stroke:#9400d3;stroke-linecap:round;stroke-miterlimit:10;" id="shape_124"/></g><g id="I7"><path d="M 875.51867219917 118.125L 427.38589211618256 118.125M 875.51867219917 146.25L 875.51867219917 90" style="fill:none;stroke:#ff0000;stroke-linecap:round;stroke-miterlimit:10;" id="shape_125"/></g><g id="I85"><path d="M 1004.9999999999999 1140.0000000000007L 925.311203319502 1140.0000000000007" style="fill:none;stroke:#aaaaaa;stroke-width:0.3;stroke-linecap:round;stroke-miterlimit:10;stroke-dasharray:5,10;" id="shape_126"/><text id="text_42" transform="matrix(1.0000,0.0000,0.0000,1.0000,1005.0000,1146.60)" fill="#000000" style="font-size:20px;font-family:Arial;">5 JF499899 1 Homo sapiens haplogroup B4d1 mitochondrion  complete genome</text><path d="M 925.311203319502 1140.0000000000007L 875.51867219917 1140.0000000000007" style="fill:none;stroke:#9400d3;stroke-linecap:round;stroke-miterlimit:10;" id="shape_127"/></g><g id="I87"><path d="M 875.51867219917 1215.0000000000007L 858.921161825726 1215.0000000000007M 875.51867219917 1230.0000000000007L 875.51867219917 1200.0000000000007" style="fill:none;stroke:#9400d3;stroke-linecap:round;stroke-miterlimit:10;" id="shape_128"/></g><g id="I41"><path d="M 1004.9999999999999 720.0000000000003L 958.5062240663898 720.0000000000003" style="fill:none;stroke:#aaaaaa;stroke-width:0.3;stroke-linecap:round;stroke-miterlimit:10;stroke-dasharray:5,10;" id="shape_129"/><text id="text_43" transform="matrix(1.0000,0.0000,0.0000,1.0000,1005.0000,726.60)" fill="#000000" style="font-size:20px;font-family:Arial;">16 GU590993 1 Homo sapiens haplogroup I3 mitochondrion  complete genome</text><path d="M 958.5062240663898 720.0000000000003L 925.3112033195018 720.0000000000003" style="fill:none;stroke:#9400d3;stroke-linecap:round;stroke-miterlimit:10;" id="shape_130"/></g><g id="I94"><path d="M 850.6224066390041 427.50000000000006L 834.0248962655601 427.50000000000006M 850.6224066390041 472.5000000000001L 850.6224066390041 382.50000000000006" style="fill:none;stroke:#9400d3;stroke-linecap:round;stroke-miterlimit:10;" id="shape_131"/></g><g id="I65"><path d="M 1004.9999999999999 1410L 975.1037344398338 1410" style="fill:none;stroke:#aaaaaa;stroke-width:0.3;stroke-linecap:round;stroke-miterlimit:10;stroke-dasharray:5,10;" id="shape_132"/><text id="text_44" transform="matrix(1.0000,0.0000,0.0000,1.0000,1005.0000,1416.60)" fill="#000000" style="font-size:20px;font-family:Arial;">1 HQ914447 1 Homo sapiens haplogroup J1b mitochondrion  complete genome</text><path d="M 975.1037344398338 1410L 917.0124481327799 1410" style="fill:none;stroke:#9400d3;stroke-linecap:round;stroke-miterlimit:10;" id="shape_133"/></g><g id="I77"><path d="M 1004.9999999999999 1260.0000000000005L 975.1037344398339 1260.0000000000005" style="fill:none;stroke:#aaaaaa;stroke-width:0.3;stroke-linecap:round;stroke-miterlimit:10;stroke-dasharray:5,10;" id="shape_134"/><text id="text_45" transform="matrix(1.0000,0.0000,0.0000,1.0000,1005.0000,1266.60)" fill="#000000" style="font-size:20px;font-family:Arial;">20 KT698008 1 Homo sapiens isolate 57 Sb haplogroup K1a4a1 mitochondrion  complete genome</text><path d="M 975.1037344398339 1260.0000000000005L 917.01244813278 1260.0000000000005" style="fill:none;stroke:#9400d3;stroke-linecap:round;stroke-miterlimit:10;" id="shape_135"/></g><g id="I13"><path d="M 1004.9999999999999 210L 925.311203319502 210" style="fill:none;stroke:#aaaaaa;stroke-width:0.3;stroke-linecap:round;stroke-miterlimit:10;stroke-dasharray:5,10;" id="shape_136"/><text id="text_46" transform="matrix(1.0000,0.0000,0.0000,1.0000,1005.0000,216.60)" fill="#000000" style="font-size:20px;font-family:Arial;">48 KX198085 1 Homo sapiens neanderthalensis isolate GoyetQ374a-1 mitochondrion  complete genome</text><path d="M 925.311203319502 210L 925.311203319502 210" style="fill:none;stroke:#ff0000;stroke-linecap:round;stroke-miterlimit:10;" id="shape_137"/></g><g id="I34"><path d="M 1004.9999999999999 630.0000000000002L 958.5062240663899 630.0000000000002" style="fill:none;stroke:#aaaaaa;stroke-width:0.3;stroke-linecap:round;stroke-miterlimit:10;stroke-dasharray:5,10;" id="shape_138"/><text id="text_47" transform="matrix(1.0000,0.0000,0.0000,1.0000,1005.0000,636.60)" fill="#000000" style="font-size:20px;font-family:Arial;">40 KU508374 1 Homo sapiens haplogroup W1c mitochondrion  complete genome</text><path d="M 958.5062240663899 630.0000000000002L 933.609958506224 630.0000000000002" style="fill:none;stroke:#9400d3;stroke-linecap:round;stroke-miterlimit:10;" id="shape_139"/></g><g id="I52"><path d="M 875.51867219917 1042.5000000000007L 875.51867219917 1042.5000000000007M 875.51867219917 1065.0000000000007L 875.51867219917 1020.0000000000007" style="fill:none;stroke:#9400d3;stroke-linecap:round;stroke-miterlimit:10;" id="shape_140"/></g><g id="I19"><path d="M 825.726141078838 284.99999999999994L 792.5311203319501 284.99999999999994M 825.726141078838 300L 825.726141078838 270" style="fill:none;stroke:#9400d3;stroke-linecap:round;stroke-miterlimit:10;" id="shape_141"/></g><g id="I24"><path d="M 834.0248962655601 546.8994140625002L 817.427385892116 546.8994140625002M 834.0248962655601 666.2988281250003L 834.0248962655601 427.50000000000006" style="fill:none;stroke:#9400d3;stroke-linecap:round;stroke-miterlimit:10;" id="shape_142"/></g><g id="I66"><path d="M 933.609958506224 1454.9999999999998L 917.0124481327799 1454.9999999999998M 933.609958506224 1469.9999999999998L 933.609958506224 1440" style="fill:none;stroke:#9400d3;stroke-linecap:round;stroke-miterlimit:10;" id="shape_143"/></g><g id="I93"><path d="M 1004.9999999999999 840.0000000000005L 925.311203319502 840.0000000000005" style="fill:none;stroke:#aaaaaa;stroke-width:0.3;stroke-linecap:round;stroke-miterlimit:10;stroke-dasharray:5,10;" id="shape_144"/><text id="text_48" transform="matrix(1.0000,0.0000,0.0000,1.0000,1005.0000,846.60)" fill="#000000" style="font-size:20px;font-family:Arial;">3 KX459697 1 Homo sapiens haplogroup A4-A200G mitochondrion  complete genome</text><path d="M 925.311203319502 840.0000000000005L 900.414937759336 840.0000000000005" style="fill:none;stroke:#9400d3;stroke-linecap:round;stroke-miterlimit:10;" id="shape_145"/></g><g id="I60"><path d="M 858.921161825726 1262.8125000000007L 858.921161825726 1262.8125000000007M 858.921161825726 1366.8750000000002L 858.921161825726 1158.7500000000007" style="fill:none;stroke:#9400d3;stroke-linecap:round;stroke-miterlimit:10;" id="shape_146"/></g><g id="I45"><path d="M 850.6224066390041 892.5000000000006L 850.6224066390041 892.5000000000006M 850.6224066390041 915.0000000000006L 850.6224066390041 870.0000000000005" style="fill:none;stroke:#9400d3;stroke-linecap:round;stroke-miterlimit:10;" id="shape_147"/></g><g id="I9"><path d="M 883.8174273858921 146.25L 875.51867219917 146.25M 883.8174273858921 172.50000000000003L 883.8174273858921 120" style="fill:none;stroke:#ff0000;stroke-linecap:round;stroke-miterlimit:10;" id="shape_148"/></g><g id="I14"><path d="M 1004.9999999999999 150L 925.311203319502 150" style="fill:none;stroke:#aaaaaa;stroke-width:0.3;stroke-linecap:round;stroke-miterlimit:10;stroke-dasharray:5,10;" id="shape_149"/><text id="text_49" transform="matrix(1.0000,0.0000,0.0000,1.0000,1005.0000,156.60)" fill="#000000" style="font-size:20px;font-family:Arial;">49 KX198084 1 Homo sapiens neanderthalensis isolate GoyetQ56-1 mitochondrion  complete genome</text><path d="M 925.311203319502 150L 925.311203319502 150" style="fill:none;stroke:#ff0000;stroke-linecap:round;stroke-miterlimit:10;" id="shape_150"/></g><g id="I3"><path d="M 1004.9999999999999 30L 999.9999999999999 30" style="fill:none;stroke:#aaaaaa;stroke-width:0.3;stroke-linecap:round;stroke-miterlimit:10;stroke-dasharray:5,10;" id="shape_151"/><text id="text_50" transform="matrix(1.0000,0.0000,0.0000,1.0000,1005.0000,36.60)" fill="#000000" style="font-size:20px;font-family:Arial;">51 FN673705 1 Homo sp  Altai complete mitochondrial genome sequence from Denisova  Altai Russia</text><path d="M 999.9999999999999 30L 991.701244813278 30" style="fill:none;stroke:#008000;stroke-linecap:round;stroke-miterlimit:10;" id="shape_152"/></g><g id="I78"><path d="M 1004.9999999999999 1290.0000000000005L 958.50622406639 1290.0000000000005" style="fill:none;stroke:#aaaaaa;stroke-width:0.3;stroke-linecap:round;stroke-miterlimit:10;stroke-dasharray:5,10;" id="shape_153"/><text id="text_51" transform="matrix(1.0000,0.0000,0.0000,1.0000,1005.0000,1296.60)" fill="#000000" style="font-size:20px;font-family:Arial;">21 HQ189135 1 Homo sapiens haplogroup K2a3 mitochondrion  complete genome</text><path d="M 958.50622406639 1290.0000000000005L 917.01244813278 1290.0000000000005" style="fill:none;stroke:#9400d3;stroke-linecap:round;stroke-miterlimit:10;" id="shape_154"/></g><g id="I38"><path d="M 925.3112033195018 765.0000000000003L 925.3112033195018 765.0000000000003M 925.3112033195018 780.0000000000005L 925.3112033195018 750.0000000000003" style="fill:none;stroke:#9400d3;stroke-linecap:round;stroke-miterlimit:10;" id="shape_155"/></g><g id="I48"><path d="M 1004.9999999999999 930.0000000000006L 933.609958506224 930.0000000000006" style="fill:none;stroke:#aaaaaa;stroke-width:0.3;stroke-linecap:round;stroke-miterlimit:10;stroke-dasharray:5,10;" id="shape_156"/><text id="text_52" transform="matrix(1.0000,0.0000,0.0000,1.0000,1005.0000,936.60)" fill="#000000" style="font-size:20px;font-family:Arial;">45 KU521491 1 Homo sapiens isolate KK13 haplogroup Y2a1 mitochondrion  complete genome</text><path d="M 933.609958506224 930.0000000000006L 925.311203319502 930.0000000000006" style="fill:none;stroke:#9400d3;stroke-linecap:round;stroke-miterlimit:10;" id="shape_157"/></g></g><g id="container_5"/><g id="container_6"/><g id="container_7"/><g id="container_8"/><g id="container_9"/></g><g id="container_10" transform="matrix(1.0000,0.0000,0.0000,1.0000,100.0000,100.00)"/><g id="container_11" transform="matrix(1.0000,0.0000,0.0000,1.0000,45.0000,36.00)"><path d="M 0 -3L 0 3M 0 0L 82.9875518672199 0M 82.9875518672199 -3L 82.9875518672199 3" style="fill:none;stroke:#000;stroke-width:0.5;stroke-linecap:round;stroke-miterlimit:10;" id="shape_159" transform="matrix(0.4999,0.0000,0.0000,1.0000,121.3096,8.00)"/><text id="text_53" transform="matrix(1.0000,0.0000,0.0000,1.0000,0.0000,10.22)" fill="#555" style="font-weight:bold;font-size:14px;font-family:Arial;">Tree scale: 0.001</text></g></g></svg>